<svg xmlns="http://www.w3.org/2000/svg" width="33" height="24" fill="none"  xmlns:v="https://vecta.io/nano"><g clip-path="url(#E)"><path d="M10.983 7.76L16.364.165H5.886l5.097 7.595z" fill="url(#A)"/><path d="M21.745 7.76L26.841.165H16.363l5.381 7.595z" fill="url(#B)"/><path d="M.22 7.76h10.763l5.381 16.008L.22 7.76z" fill="url(#C)"/><path d="M32.507 7.76H21.745l-5.381 16.008L32.507 7.76z" fill="url(#D)"/><path d="M16.364 24L0 7.747 6.058 0H26.67l6.058 7.747L16.364 24zM.439 7.72l15.925 15.818L32.289 7.72 26.509.327H6.219L.439 7.72z" fill="#009fe3"/></g><defs><linearGradient id="A" x1="11.125" y1="6.772" x2="11.125" y2="-.823" gradientUnits="userSpaceOnUse"><stop stop-color="#252d61"/><stop offset=".063" stop-color="#2a4487"/><stop offset=".106" stop-color="#2a54a2"/><stop offset=".154" stop-color="#2b5da7"/><stop offset=".371" stop-color="#3a82c0"/><stop offset=".571" stop-color="#4ea1d3"/><stop offset=".749" stop-color="#5fb6de"/><stop offset=".898" stop-color="#6ac4e5"/><stop offset="1" stop-color="#6ec8e7"/></linearGradient><linearGradient id="B" x1="21.602" y1="6.774" x2="21.602" y2="-.822" gradientUnits="userSpaceOnUse"><stop stop-color="#252d61"/><stop offset=".063" stop-color="#2a4487"/><stop offset=".106" stop-color="#2a54a2"/><stop offset=".154" stop-color="#2b5da7"/><stop offset=".371" stop-color="#3a82c0"/><stop offset=".571" stop-color="#4ea1d3"/><stop offset=".749" stop-color="#5fb6de"/><stop offset=".898" stop-color="#6ac4e5"/><stop offset="1" stop-color="#6ec8e7"/></linearGradient><linearGradient id="C" x1="8.313" y1="18.343" x2="8.191" y2="3.114" gradientUnits="userSpaceOnUse"><stop stop-color="#252d61"/><stop offset=".065" stop-color="#2a3e7d"/><stop offset=".125" stop-color="#2b4e97"/><stop offset=".161" stop-color="#2a54a2"/><stop offset=".187" stop-color="#2b5aa5"/><stop offset=".398" stop-color="#3980bf"/><stop offset=".592" stop-color="#4d9fd2"/><stop offset=".764" stop-color="#5eb5de"/><stop offset=".905" stop-color="#6ac3e5"/><stop offset="1" stop-color="#6ec8e7"/></linearGradient><linearGradient id="D" x1="24.432" y1="18.702" x2="24.451" y2="2.638" gradientUnits="userSpaceOnUse"><stop stop-color="#252d61"/><stop offset=".065" stop-color="#2a3e7d"/><stop offset=".125" stop-color="#2b4e97"/><stop offset=".161" stop-color="#2a54a2"/><stop offset=".187" stop-color="#2b5aa5"/><stop offset=".398" stop-color="#3980bf"/><stop offset=".592" stop-color="#4d9fd2"/><stop offset=".764" stop-color="#5eb5de"/><stop offset=".905" stop-color="#6ac3e5"/><stop offset="1" stop-color="#6ec8e7"/></linearGradient><clipPath id="E"><path fill="#fff" d="M0 0h32.727v24H0z"/></clipPath></defs></svg>