<svg width="18" height="9" viewBox="0 0 18 9" fill="none" xmlns="http://www.w3.org/2000/svg">
<path d="M17.3124 4.15305C17.3122 4.15285 17.312 4.15261 17.3118 4.15241L13.7887 0.64635C13.5248 0.383698 13.0979 0.384676 12.8352 0.648642C12.5725 0.912574 12.5735 1.33947 12.8374 1.60216L15.2028 3.95607H0.923755C0.551371 3.95607 0.249512 4.25793 0.249512 4.63031C0.249512 5.0027 0.551371 5.30456 0.923755 5.30456H15.2028L12.8375 7.65847C12.5735 7.92116 12.5725 8.34806 12.8352 8.61199C13.0979 8.87599 13.5249 8.8769 13.7888 8.61428L17.3118 5.10822C17.312 5.10802 17.3122 5.10778 17.3124 5.10758C17.5765 4.84402 17.5757 4.41574 17.3124 4.15305Z" fill="#333333" fill-opacity="0.5"/>
</svg>
