<svg width="153" height="12" viewBox="0 0 153 12" fill="none" xmlns="http://www.w3.org/2000/svg">
<g clip-path="url(#clip0)">
<path d="M9.41613 11.7313V4.99911L5.91019 9.27423L2.3857 4.99911V11.7313H0.629639V0.0662842L5.90401 6.46345L11.1846 0.0662842V11.7313H9.41613Z" fill="white"/>
<path d="M22.1847 4.81297H26.2842V6.46345H22.1847V10.0809H27.1623V11.7313H22.1723H20.4348V0.0662842H22.1723H27.1623V1.69815H22.1847V4.81297Z" fill="white"/>
<path d="M42.3486 1.69815H39.2631V11.7313H37.4947V1.69815H34.4092V0.0662842H42.3486V1.69815Z" fill="white"/>
<path d="M56.8977 11.7313H54.9809L53.9545 9.2308H50.1146L49.0882 11.7313H47.1528L52.0315 0.0662842L56.8977 11.7313ZM53.2681 7.59273L52.0253 4.55857L50.7824 7.59273H53.2681Z" fill="white"/>
<path d="M64.9361 11.7313H63.0007L67.8856 0.0662842L72.7518 11.7313H70.8288L67.8794 4.57719L64.9361 11.7313Z" fill="white"/>
<path d="M81.3219 11.7313H79.3865L84.2713 0.0662842L89.1376 11.7313H87.2146L84.2651 4.57719L81.3219 11.7313Z" fill="white"/>
<path d="M98.3754 11.2722C97.6953 10.9744 97.1078 10.5462 96.5884 10.0126C96.0752 9.47899 95.6671 8.86471 95.3765 8.15736C95.0921 7.45002 94.9375 6.68062 94.9375 5.89261C94.9375 5.1046 95.0859 4.3352 95.3765 3.61544C95.6609 2.9267 96.069 2.31243 96.5884 1.7602C97.1017 1.22658 97.6953 0.817067 98.3754 0.519236C99.0556 0.221405 99.7976 0.0662842 100.552 0.0662842C101.306 0.0662842 102.048 0.221405 102.747 0.519236C103.415 0.817067 104.002 1.22658 104.534 1.7602C105.047 2.31243 105.443 2.9205 105.727 3.61544C106.012 4.3414 106.166 5.1108 106.166 5.89261C106.166 6.68062 106.018 7.45002 105.727 8.15736C105.443 8.86471 105.047 9.47899 104.534 10.0126C104.002 10.5462 103.415 10.9681 102.747 11.2722C102.048 11.57 101.313 11.7251 100.552 11.7251C99.7976 11.7313 99.0556 11.57 98.3754 11.2722ZM97.8313 3.06942C97.1078 3.8264 96.6997 4.83158 96.6997 5.89881C96.6997 6.96604 97.1078 7.97122 97.8313 8.72821C98.5547 9.4852 99.5255 9.90712 100.552 9.90712C101.578 9.90712 102.549 9.4852 103.273 8.72821C103.996 7.97122 104.404 6.96604 104.404 5.89881C104.404 4.83158 103.996 3.8264 103.273 3.06942C102.549 2.31243 101.578 1.8905 100.552 1.8905C99.5255 1.8905 98.5547 2.31243 97.8313 3.06942Z" fill="white"/>
<path d="M122.324 11.7313V4.99911L118.818 9.27423L115.293 4.99911V11.7313H113.537V0.0662842L118.811 6.46345L124.092 0.0662842V11.7313H122.324Z" fill="white"/>
<path d="M133.676 4.81297H137.776V6.46345H133.676V10.0809H138.654V11.7313H133.664H131.926V0.0662842H133.664H138.654V1.69815H133.676V4.81297Z" fill="white"/>
<path d="M147.391 0.0662842H149.233C150.717 0.0662842 151.577 0.692971 152.028 1.21418C152.634 1.90291 152.937 2.83363 152.937 3.91948C152.937 5.00532 152.634 5.94845 152.028 6.62477C151.577 7.15839 150.711 7.78508 149.233 7.78508H147.663V11.7313H145.907V0.0662842H147.391ZM151.367 3.91948C151.367 3.46652 151.274 2.80261 150.866 2.33104C150.501 1.92152 149.957 1.70436 149.233 1.70436H147.663V6.13459H149.233C149.957 6.13459 150.501 5.92984 150.866 5.52032C151.28 5.04875 151.367 4.39104 151.367 3.91948Z" fill="white"/>
</g>
<defs>
<clipPath id="clip0">
<rect width="152.314" height="11.6651" fill="white" transform="translate(0.629639 0.0662842)"/>
</clipPath>
</defs>
</svg>
