<svg xmlns="http://www.w3.org/2000/svg" fill="none" viewBox="0 0 38 28"><g clip-path="url(#clip0)"><path fill="url(#paint0_linear)" d="M12.493 8.827l6.121-8.64H6.694l5.799 8.64z"/><path fill="url(#paint1_linear)" d="M24.736 8.827l5.798-8.64h-11.92l6.122 8.64z"/><path fill="url(#paint2_linear)" d="M.25 8.827h12.243l6.121 18.21L.25 8.827z"/><path fill="url(#paint3_linear)" d="M36.98 8.827H24.735l-6.122 18.21L36.98 8.827z"/><path fill="#009FE3" d="M18.614 27.301L0 8.813 6.89 0h23.448l6.89 8.813L18.615 27.3zM.5 8.781l18.116 17.994L36.73 8.78 30.155.372H7.074L.499 8.782z"/></g><defs><linearGradient id="paint0_linear" x1="12.655" x2="12.655" y1="7.703" y2="-.937" gradientUnits="userSpaceOnUse"><stop stop-color="#252D61"/><stop offset=".063" stop-color="#2A4487"/><stop offset=".106" stop-color="#2A54A2"/><stop offset=".153" stop-color="#2B5DA7"/><stop offset=".371" stop-color="#3A82C0"/><stop offset=".571" stop-color="#4EA1D3"/><stop offset=".749" stop-color="#5FB6DE"/><stop offset=".898" stop-color="#6AC4E5"/><stop offset="1" stop-color="#6EC8E7"/></linearGradient><linearGradient id="paint1_linear" x1="24.574" x2="24.574" y1="7.705" y2="-.935" gradientUnits="userSpaceOnUse"><stop stop-color="#252D61"/><stop offset=".063" stop-color="#2A4487"/><stop offset=".106" stop-color="#2A54A2"/><stop offset=".153" stop-color="#2B5DA7"/><stop offset=".371" stop-color="#3A82C0"/><stop offset=".571" stop-color="#4EA1D3"/><stop offset=".749" stop-color="#5FB6DE"/><stop offset=".898" stop-color="#6AC4E5"/><stop offset="1" stop-color="#6EC8E7"/></linearGradient><linearGradient id="paint2_linear" x1="9.456" x2="9.317" y1="20.866" y2="3.541" gradientUnits="userSpaceOnUse"><stop stop-color="#252D61"/><stop offset=".065" stop-color="#2A3E7D"/><stop offset=".125" stop-color="#2B4E97"/><stop offset=".161" stop-color="#2A54A2"/><stop offset=".187" stop-color="#2B5AA5"/><stop offset=".398" stop-color="#3980BF"/><stop offset=".592" stop-color="#4D9FD2"/><stop offset=".763" stop-color="#5EB5DE"/><stop offset=".905" stop-color="#6AC3E5"/><stop offset="1" stop-color="#6EC8E7"/></linearGradient><linearGradient id="paint3_linear" x1="27.793" x2="27.815" y1="21.273" y2="3" gradientUnits="userSpaceOnUse"><stop stop-color="#252D61"/><stop offset=".065" stop-color="#2A3E7D"/><stop offset=".125" stop-color="#2B4E97"/><stop offset=".161" stop-color="#2A54A2"/><stop offset=".187" stop-color="#2B5AA5"/><stop offset=".398" stop-color="#3980BF"/><stop offset=".592" stop-color="#4D9FD2"/><stop offset=".763" stop-color="#5EB5DE"/><stop offset=".905" stop-color="#6AC3E5"/><stop offset="1" stop-color="#6EC8E7"/></linearGradient><clipPath id="clip0"><path fill="#fff" d="M0 0h37.229v27.301H0z"/></clipPath></defs></svg>