<svg width="38" height="47" viewBox="0 0 38 47" fill="none" xmlns="http://www.w3.org/2000/svg">
<path d="M9.35726 29.857C9.35726 29.0863 8.82248 28.6267 7.87892 28.6267C7.49362 28.6267 7.23268 28.6647 7.09619 28.7011V31.1738C7.2578 31.2102 7.45647 31.2224 7.7303 31.2224C8.73605 31.2224 9.35726 30.7142 9.35726 29.857Z" fill="#8A8A8C"/>
<path d="M15.1987 28.6526C14.7761 28.6526 14.5031 28.6891 14.3416 28.7269V34.2033C14.5032 34.2412 14.7641 34.2412 15 34.2412C16.7142 34.2534 17.8322 33.3098 17.8322 31.3104C17.8443 29.5718 16.8255 28.6526 15.1987 28.6526Z" fill="#8A8A8C"/>
<path d="M26.051 0H7.41194C4.68895 0 2.47273 2.21776 2.47273 4.93921V23.2035H1.99031C0.8913 23.2035 0 24.094 0 25.194V37.2644C0 38.3643 0.891204 39.2547 1.99031 39.2547H2.47273V41.468C2.47273 44.1924 4.68895 46.4072 7.41194 46.4072H32.8441C35.5654 46.4072 37.7819 44.1923 37.7819 41.468V11.6898L26.051 0ZM5.22142 27.3723C5.80471 27.2737 6.62459 27.1994 7.77972 27.1994C8.94708 27.1994 9.77908 27.4222 10.3381 27.8698C10.8721 28.2916 11.2325 28.9878 11.2325 29.8071C11.2325 30.6262 10.9594 31.3226 10.4626 31.7943C9.81633 32.4026 8.86064 32.6757 7.74266 32.6757C7.49385 32.6757 7.27083 32.6634 7.09642 32.6392V35.6323H5.22142V27.3723ZM32.8441 43.3824H7.41194C6.35759 43.3824 5.49901 42.5238 5.49901 41.468V39.2547H29.207C30.3062 39.2547 31.1974 38.3643 31.1974 37.2644V25.194C31.1974 24.094 30.3062 23.2035 29.207 23.2035H5.49901V4.93921C5.49901 3.8864 6.35768 3.02782 7.41194 3.02782L24.9193 3.00953V9.48089C24.9193 11.3711 26.453 12.9062 28.3447 12.9062L34.6841 12.888L34.7554 41.4679C34.7554 42.5238 33.8984 43.3824 32.8441 43.3824ZM12.4415 35.5943V27.3723C13.137 27.2616 14.0434 27.1994 14.9999 27.1994C16.5896 27.1994 17.6205 27.4846 18.4283 28.0928C19.2975 28.739 19.8436 29.7691 19.8436 31.2481C19.8436 32.85 19.2603 33.9559 18.4524 34.6385C17.571 35.3711 16.2294 35.7186 14.5903 35.7186C13.6087 35.7186 12.9133 35.6564 12.4415 35.5943ZM25.9965 30.7264V32.266H22.9905V35.6323H21.0905V27.2616H26.2073V28.8133H22.9905V30.7264H25.9965Z" fill="#8A8A8C"/>
</svg>
